<svg xmlns="http://www.w3.org/2000/svg" viewBox="0 0 200 200" fill="none">
  <!-- Background soft circle -->
  <circle cx="100" cy="100" r="88" fill="#f7f8f9"/>

  <!-- Left hand/arm -->
  <path d="M20 115 C25 115, 40 114, 55 110 L65 108 C70 107, 72 104, 72 100 L72 95 C72 91, 70 88, 66 88 L55 88 C50 88, 48 90, 48 94 L48 96" stroke="#253530" stroke-width="3" stroke-linecap="round" fill="none" opacity="0.8"/>
  <!-- Left hand shape -->
  <path d="M48 94 C48 88, 55 82, 65 82 L85 82 C90 82, 94 86, 94 91 L94 95 C94 100, 90 104, 85 104 L65 108" fill="#253530" opacity="0.15"/>
  <path d="M55 82 L85 82 C90 82, 94 86, 94 91 L94 95 C94 98, 92 100, 90 101" stroke="#253530" stroke-width="2.5" stroke-linecap="round" fill="none" opacity="0.7"/>

  <!-- Right hand/arm -->
  <path d="M180 90 C175 90, 160 91, 145 95 L135 97 C130 98, 128 101, 128 105 L128 110 C128 114, 130 117, 134 117 L145 117 C150 117, 152 115, 152 111 L152 109" stroke="#76d669" stroke-width="3" stroke-linecap="round" fill="none" opacity="0.9"/>
  <!-- Right hand shape -->
  <path d="M152 111 C152 117, 145 123, 135 123 L115 123 C110 123, 106 119, 106 114 L106 110 C106 105, 110 101, 115 101 L135 97" fill="#76d669" opacity="0.15"/>
  <path d="M145 123 L115 123 C110 123, 106 119, 106 114 L106 110 C106 107, 108 105, 110 104" stroke="#76d669" stroke-width="2.5" stroke-linecap="round" fill="none" opacity="0.8"/>

  <!-- Handshake overlap / clasp area -->
  <ellipse cx="100" cy="100" rx="15" ry="12" fill="#76d669" opacity="0.12"/>

  <!-- Fingers interlocking (simplified) -->
  <path d="M88 95 C92 92, 96 91, 100 93 C104 91, 108 92, 112 95" stroke="#253530" stroke-width="2" stroke-linecap="round" fill="none" opacity="0.3"/>
  <path d="M88 102 C92 105, 96 106, 100 104 C104 106, 108 105, 112 102" stroke="#76d669" stroke-width="2" stroke-linecap="round" fill="none" opacity="0.4"/>

  <!-- Radiating warmth lines -->
  <line x1="100" y1="60" x2="100" y2="50" stroke="#DDEA7F" stroke-width="2" stroke-linecap="round" opacity="0.5"/>
  <line x1="75" y1="68" x2="70" y2="60" stroke="#DDEA7F" stroke-width="2" stroke-linecap="round" opacity="0.4"/>
  <line x1="125" y1="68" x2="130" y2="60" stroke="#DDEA7F" stroke-width="2" stroke-linecap="round" opacity="0.4"/>
  <line x1="65" y1="80" x2="58" y2="75" stroke="#DDEA7F" stroke-width="1.5" stroke-linecap="round" opacity="0.3"/>
  <line x1="135" y1="80" x2="142" y2="75" stroke="#DDEA7F" stroke-width="1.5" stroke-linecap="round" opacity="0.3"/>

  <!-- Small sparkle dots -->
  <circle cx="100" cy="45" r="3" fill="#DDEA7F" opacity="0.6"/>
  <circle cx="67" cy="56" r="2" fill="#76d669" opacity="0.4"/>
  <circle cx="133" cy="56" r="2" fill="#76d669" opacity="0.4"/>

  <!-- Trust/heart subtle shape -->
  <path d="M95 140 C95 135, 90 132, 87 135 C84 138, 87 143, 95 150 L95 150" fill="#76d669" opacity="0.15"/>
  <path d="M105 140 C105 135, 110 132, 113 135 C116 138, 113 143, 105 150 L105 150" fill="#76d669" opacity="0.15"/>
  <path d="M95 150 L100 155 L105 150" fill="#76d669" opacity="0.15"/>

  <!-- Ground shadow -->
  <ellipse cx="100" cy="168" rx="50" ry="5" fill="#253530" opacity="0.04"/>
</svg>